# xmcd CD database file
#
# Track frame offsets:
#	150
#	21230
#	39702
#	53287
#	75652
#	98215
#	121212
#	136382
#	159957
#	177852
#
# Disc length: 2542 seconds
#
# Revision: 0
# Processed by: cddbd v1.5.2PL0 Copyright (c) Steve Scherf et al.
# Submitted via: CDex 1.70beta2
#
DISCID=7209ec0a
DTITLE=Vinicio Adames - El Proceso del Deseo
DYEAR=1990
DGENRE=New Age
TTITLE0=Atraccion por Video
TTITLE1=El Proceso del Deseo
TTITLE2=Galeria de Abstraccion
TTITLE3=Maitines-Aquelarre
TTITLE4=Crickets
TTITLE5=Gero Era
TTITLE6=Variaciones en Otoño
TTITLE7=A la Caza del Susurro
TTITLE8=Metropolis
TTITLE9=The Bride
EXTD=YEAR: 1990
EXTT0=
EXTT1=
EXTT2=
EXTT3=
EXTT4=
EXTT5=
EXTT6=
EXTT7=
EXTT8=
EXTT9=
PLAYORDER=
